# xmcd
#
# Track frame offsets: 
#        150
#        11308
#        22026
#        32946
#        45165
#        56593
#        67936
#        80794
#        93071
#        102341
#        111944
#        121809
#        132643
#        143180
#        153203
#        163111
#        175149
#        186167
#        196859
#        209407
#        220897
#        232654
#        244126
#        253735
#        265470
#
# Disc length: 3670 seconds
#
# Revision: 0
# Processed by: cddbd v1.5.2PL0 Copyright (c) Steve Scherf et al.
# Submitted via: ExactAudioCopy v0.99pb5
#
DISCID=5a0e5419
DTITLE=Flatt and Scruggs - Flat and Scruggs and the Stanley Brothers
DYEAR=2010
DGENRE=Bluegrass
TTITLE0=Gone Home
TTITLE1=Bubbling in My Soul
TTITLE2=Joy Bells
TTITLE3=What's Good for You
TTITLE4=No Doubt About It
TTITLE5=Who Will Sing for Me
TTITLE6=Give Mother My Crown
TTITLE7=Six White Horses
TTITLE8=Shuckin' the Corn
TTITLE9=Don't Let Your Deal Go Down
TTITLE10=A Hundred Years from Now
TTITLE11=Give Me Flowers While I'm Living
TTITLE12=Is There Room for Me?
TTITLE13=Let Those Brown Eyes Smile at Me
TTITLE14=I Won't Be Hanging Around
TTITLE15=I Don't Care Any More
TTITLE16=Big Black Train
TTITLE17=Mama and Daddy's Little Girl
TTITLE18=Crying Alone
TTITLE19=A Million Years in Glory
TTITLE20=Heaven
TTITLE21=Building on Sand
TTITLE22=Jesus Savior Pilot Me
TTITLE23=Crying My Heart Out Over You
TTITLE24=Ground Speed
EXTD=
EXTT0=
EXTT1=
EXTT2=
EXTT3=
EXTT4=
EXTT5=
EXTT6=
EXTT7=
EXTT8=
EXTT9=
EXTT10=
EXTT11=
EXTT12=
EXTT13=
EXTT14=
EXTT15=
EXTT16=
EXTT17=
EXTT18=
EXTT19=
EXTT20=
EXTT21=
EXTT22=
EXTT23=
EXTT24=
PLAYORDER=
